<svg xmlns="http://www.w3.org/2000/svg" width="44" height="44" viewBox="0 0 44 44"><g fill="none" fill-rule="evenodd"><path stroke="#AAA" stroke-width="2" d="M36.754 35.262l-.002-.002-6.565-6.548.461-.685a12.83 12.83 0 0 0-1.592-16.257c-5.043-5.027-13.225-5.027-18.275 0-5.041 5.024-5.041 13.168 0 18.194 4.345 4.329 11.125 4.988 16.218 1.684l.678-.44.572.57 5.993 5.975a.853.853 0 0 0 1.203 0l1.305-1.3a.837.837 0 0 0 .004-1.191z"/><path fill="#F4A436" d="M20 13a8 8 0 1 1 0 16 8 8 0 0 1 0-16zm0 12a1 1 0 1 0 0-2 1 1 0 0 0 0 2zm0-8a1 1 0 0 0-1 1v3a1 1 0 0 0 2 0v-3a1 1 0 0 0-1-1z"/></g></svg>