<svg xmlns="http://www.w3.org/2000/svg" width="44" height="44" viewBox="0 0 44 44"><g fill="none" fill-rule="evenodd"><path fill="#434A50" d="M27 38h9V24h-9v-2h11v-4H27v-2H17v2H6v4h11v2H8v14h9v2h10v-2zm11-14v16H6V24H4v-8h36v8h-2z"/><path fill="#5B9E4D" d="M18 14c-2.787 0-5-2.213-5-5s2.213-5 5-5a4.97 4.97 0 0 1 4.262 2.364A4.485 4.485 0 0 1 25.5 5C28 5 30 7 30 9.5S28 14 25.5 14H18zm0-8a2.98 2.98 0 0 0-3 3c0 1.672 1.328 3 3 3h3V9c0-1.672-1.328-3-3-3zm7.5 1A2.49 2.49 0 0 0 23 9.5V12h2.5A2.49 2.49 0 0 0 28 9.5 2.49 2.49 0 0 0 25.5 7zm-.5 9v24h-6V16h6z"/></g></svg>