<svg width="14" height="15" viewBox="0 0 14 15" xmlns="http://www.w3.org/2000/svg" xmlns:xlink="http://www.w3.org/1999/xlink"><use xlink:href="#path0_fill" transform="translate(0 -1)" fill="#333"/><defs><path id="path0_fill" d="M6.857 1.429A6.859 6.859 0 0 0 0 8.286a6.859 6.859 0 0 0 6.857 6.857 6.859 6.859 0 0 0 6.857-6.857 6.859 6.859 0 0 0-6.857-6.857zM9.304 6.08c.098-.062.258-.143.383-.107.099.027.18.063.063.143-.054.036-.134 0-.196.018.08.018.196.053.16.134.232.134-.071.295-.223.277.072.009-.152.143-.152.134-.08.044-.187.044-.25.125-.071.098.027.267-.107.232-.053.116-.259.053-.348.178.098.107-.098.26-.197.125-.089.036-.044.134-.133.188.035.053.044.107-.018.143.018-.01.125.08.152.089-.018.045-.054.08-.099.08.045.116-.053.241-.134.313-.089.071-.294.143-.321.16-.16.152-.268.376.018.438.009 0 .009.295.018.304.018.107.062.42-.125.303-.09-.044-.143-.294-.17-.393-.027-.107-.036-.107-.107-.214-.116.134-.134.036-.232-.027-.098-.053-.241-.036-.295-.09-.134.1-.232.072-.259-.08-.036.072.036.18.027.206-.045.09-.125.071-.197.018-.116-.09-.366.062-.5 0 .01 0 .045.036.072.053-.027.107-.09.045-.143.08-.062.045-.116.135-.17.18.117.223-.008.437 0 .678 0 .178.117.49.286.59.08.044.348.062.429.026.125-.054.107-.152.152-.259.044-.116.098-.17.232-.179.384-.017.089.295.044.456-.027.116-.035.25-.053.357.044.018.089.009.134.009 0-.036.026-.08.026-.107.054.089.233.116.286.009.063.107.188.187.205.312.018.125.134.26-.035.26-.125 0 .018.25.035.294.099.178.26.25.438.16 0 .072-.027.268-.125.286-.09.018-.259-.17-.223-.268a.142.142 0 0 1-.063.08c-.089-.107-.24-.16-.321-.267-.018-.027-.26-.393-.205-.41-.125.053-.375-.037-.492-.1-.187-.097-.214-.356-.446-.32-.16.026-.205.089-.393.017-.125-.044-.232-.134-.357-.196-.143-.08-.393-.16-.446-.34-.054-.142-.036-.312-.117-.446-.053-.09-.214-.268-.33-.268.107 0-.098-.268-.125-.294-.098-.116-.455-.429-.384-.607.018-.027-.178-.099-.214-.108.036.09.045.188.09.268.044.09.097.17.151.26.098.16.232.356.214.553-.116.035-.08-.134-.116-.206-.062-.116-.232-.116-.277-.24.018-.01.027-.01.045-.019.009-.151-.214-.276-.179-.383-.124-.099-.124-.286-.214-.411-.08-.116-.214-.17-.33-.25-.045-.027-.366-.438-.25-.464-.179.044-.268-.375-.241-.483 0 0-.018 0-.018-.009.036-.107-.027-.66.116-.67-.098.01-.125-.231-.098-.276.018-.036.152.098.16.116.054-.027.108-.098.09-.16-.027-.072-.125-.135-.188-.188-.026-.018-.384-.25-.393-.241.036-.063.027-.125-.026-.17-.17.134-.08-.125-.17-.152a.25.25 0 0 1-.107-.071 5.804 5.804 0 0 1 2.098-1.982c.054-.01.125-.01.197-.01.16.019.25.153.366.233.017-.045-.018-.116-.045-.16.027-.072.134-.09.196-.108.08-.009.197-.027.268.01-.053-.081-.116-.153-.178-.224-.01.009-.036.027-.045.045-.098-.08-.286.026-.375.062-.071.036-.134.08-.205.107a.152.152 0 0 1-.107.01c.267-.144.544-.269.839-.367.053.036.107.098.187.16-.053-.044-.053.161-.035.197.098.134.312.045.446.045-.009 0 .393.053.313-.045.062.09.062.223.142.304.08-.08-.035-.17.018-.25.018-.036.179-.08.232-.107.063-.045-.044-.108-.071-.125-.09-.054-.438-.08-.268-.286.063-.072.286-.036.357.009.098.053.206.152.072.24.062.01.357.09.312.206.027-.053.072-.134.143-.134.08.01.098.197.134.241.125.224.34-.223.375-.205-.16-.063.143-.143.223-.116.063.027.16.241.045.232.098.09.107.286-.072.277-.125-.01-.268-.179-.384-.045-.08.09-.116.223-.196.304-.125.125-.295.116-.446.098.062.009-.134.214-.152.25a.506.506 0 0 0-.107.205c-.018.09 0 .188-.045.277.152-.045.232.232.17.241.187-.027.339-.027.518.036.125.045.312.098.366.232.035-.053.205-.027.258-.009.108.054.117.17.143.268.036.134.152.357.304.286.027-.018.223-.107.152-.161-.072-.063-.152-.223-.08-.313.07-.098.24-.125.285-.25.072-.205-.214-.178-.214-.33 0-.09.116-.116.107-.223 0-.09-.134-.268-.027-.33.09-.054.518.035.598.089.08.053.33.125.349.205h-.045c.071.063.134.197.009.232.08-.018.312.072.152.125.053-.026.098-.009.151-.044.063-.036.099-.098.179-.054.018.01.116-.187.17-.178.08.008.098.125.134.178.035.08.133.107.17.188.062.151.035.294.24.348.063.018.232-.08.223.053.036-.035.054-.062.054-.071.009.125.063.268.214.25 0 0 0 .17-.018.196-.053.08-.187.063-.267.108-.027.008-.241.196-.215.223-.116-.134-.303-.134-.455-.098-.16.026-.313.044-.464.107-.072.035-.143.071-.197.134-.027.035-.071.196-.116.205.09-.018.134-.116.206-.17zm-1.456 7.83a1.505 1.505 0 0 1-.018-.142c-.009-.143.143-.241.134-.375-.098-.027-.125-.125-.107-.232.018-.152.152-.26.26-.357.106-.099.133-.304.106-.429-.044-.214-.044-.438-.08-.652.009.054.16.036.187.107.036-.062.054-.143.099-.205.035-.054.098-.071.151-.116.09-.054.277-.259.384-.134.09.107-.134.223-.018.321.036-.071 0-.178.072-.25.143-.16.24.018.384.063.152.045.205.098.321.196-.036-.035.143-.098.16-.107.17-.036.242.063.358.152.125.09.322.152.304.33.089.018.143.045.214.072.071.036.17.018.223.071a5.667 5.667 0 0 1-3.134 1.688z"/></defs></svg>