<svg width="16" height="16" viewBox="0 0 16 16" xmlns="http://www.w3.org/2000/svg" xmlns:xlink="http://www.w3.org/1999/xlink"><use xlink:href="#path0_fill" fill="#FF4D00"/><defs><path id="path0_fill" d="M6.313 9.531a.732.732 0 0 0 .53-.219.754.754 0 0 0 .22-.53c0-.188-.094-.376-.22-.532A.783.783 0 0 0 6.282 8a.667.667 0 0 0-.531.25.732.732 0 0 0-.219.531c0 .219.063.406.219.531.125.157.313.22.563.22zM15.75 8a7.685 7.685 0 0 0-1.063-3.875 7.59 7.59 0 0 0-2.812-2.813A7.685 7.685 0 0 0 8 .25c-1.406 0-2.688.375-3.875 1.063C2.937 2 1.969 2.938 1.281 4.124A7.655 7.655 0 0 0 .25 8c0 1.406.344 2.688 1.031 3.875a7.758 7.758 0 0 0 2.844 2.844A7.573 7.573 0 0 0 8 15.75a7.656 7.656 0 0 0 3.875-1.031c1.188-.688 2.125-1.656 2.813-2.844.687-1.188 1.062-2.469 1.062-3.875zm-4.125-1.281c.313 0 .594.125.781.375a1.1 1.1 0 0 1 .219.875c-.063.312-.219.562-.531.687l.062.5a2.24 2.24 0 0 1-.562 1.5c-.375.469-.906.844-1.531 1.094A5.505 5.505 0 0 1 8 12.125c-.75 0-1.438-.125-2.063-.375a3.603 3.603 0 0 1-1.5-1.094 2.24 2.24 0 0 1-.562-1.5c0-.156 0-.312.063-.469a1.002 1.002 0 0 1-.563-.718c-.063-.313 0-.594.188-.844a.992.992 0 0 1 .812-.406c.313 0 .563.125.75.312.75-.5 1.625-.781 2.688-.843L8.405 3.5c0-.031.031-.063.094-.094.031-.031.063-.062.125-.062l1.906.437a.887.887 0 0 1 .281-.312c.126-.063.25-.125.407-.125.219 0 .406.094.562.25.125.156.219.344.219.531a.898.898 0 0 1-.219.563.753.753 0 0 1-.562.218c-.219 0-.406-.062-.531-.218-.157-.125-.22-.313-.22-.563l-1.75-.375-.53 2.438c1.03.062 1.937.343 2.687.843.188-.187.438-.312.75-.312zm-2.156 3.625c0-.031.031-.063.094-.063.062 0 .093.031.156.063.031.062.062.094.062.156 0 .063-.031.094-.062.125-.25.25-.594.406-1.031.469a3.397 3.397 0 0 1-1.376 0c-.468-.063-.812-.219-1.03-.469-.063-.031-.063-.063-.063-.125 0-.063 0-.094.062-.156.032-.031.063-.063.125-.063.063 0 .094.031.125.063.188.187.469.312.875.375.375.062.782.062 1.188 0 .375-.063.687-.188.875-.375zM9.719 8c.187 0 .375.094.531.25.125.156.219.344.219.531a.754.754 0 0 1-.219.531.753.753 0 0 1-.563.22c-.218 0-.406-.063-.53-.22-.157-.124-.22-.312-.22-.53 0-.188.063-.376.22-.532.124-.156.312-.25.562-.25z"/></defs></svg>